<svg width="78" height="15" viewBox="0 0 78 15" fill="none" xmlns="http://www.w3.org/2000/svg">
<path d="M18.8164 12.1044C18.1359 12.1044 17.5443 12.0155 17.0416 11.8376C16.5389 11.6597 16.1523 11.4161 15.8816 11.1068C15.6187 10.7975 15.4872 10.4417 15.4872 10.0396C15.4872 9.4132 15.8816 9.1 16.6704 9.1C16.6859 9.71093 16.8792 10.1749 17.2504 10.492C17.6293 10.8091 18.1591 10.9676 18.8396 10.9676C19.4351 10.9676 19.8952 10.8671 20.22 10.666C20.5448 10.4649 20.7072 10.1749 20.7072 9.796C20.7072 9.55627 20.6453 9.36293 20.5216 9.216C20.3979 9.06133 20.1891 8.926 19.8952 8.81C19.6013 8.68627 19.176 8.56253 18.6192 8.4388C17.8768 8.2764 17.2891 8.08693 16.856 7.8704C16.4307 7.65387 16.1213 7.3948 15.928 7.0932C15.7347 6.7916 15.638 6.41653 15.638 5.968C15.638 5.53493 15.7656 5.15213 16.0208 4.8196C16.276 4.48707 16.6356 4.23187 17.0996 4.054C17.5636 3.8684 18.1011 3.7756 18.712 3.7756C19.292 3.7756 19.814 3.8568 20.278 4.0192C20.742 4.17387 21.1055 4.39427 21.3684 4.6804C21.6313 4.96653 21.7628 5.2952 21.7628 5.6664C21.7628 6.2 21.3877 6.4784 20.6376 6.5016C20.5757 5.9448 20.3901 5.5388 20.0808 5.2836C19.7792 5.0284 19.3229 4.9008 18.712 4.9008C18.1707 4.9008 17.7531 4.9936 17.4592 5.1792C17.1653 5.3648 17.0184 5.62773 17.0184 5.968C17.0184 6.2 17.0725 6.39333 17.1808 6.548C17.2968 6.69493 17.4863 6.8264 17.7492 6.9424C18.0121 7.05067 18.3911 7.15893 18.886 7.2672C19.6748 7.44507 20.3012 7.64613 20.7652 7.8704C21.2292 8.08693 21.5617 8.34987 21.7628 8.6592C21.9716 8.9608 22.076 9.33973 22.076 9.796C22.076 10.2677 21.9407 10.6776 21.67 11.0256C21.4071 11.3736 21.0281 11.6404 20.5332 11.826C20.046 12.0116 19.4737 12.1044 18.8164 12.1044ZM25.7125 12.099C25.1405 12.099 24.7152 11.934 24.4365 11.604C24.1652 11.274 24.0295 10.8487 24.0295 10.328V7.435H22.9295C22.9295 7.11967 22.9919 6.885 23.1165 6.731C23.2412 6.577 23.4099 6.5 23.6225 6.5H24.0405V5.543C24.0405 5.26433 24.1395 5.06267 24.3375 4.938C24.5429 4.81333 24.8472 4.751 25.2505 4.751V6.5H26.7135C26.7135 6.83 26.6475 7.06833 26.5155 7.215C26.3835 7.36167 26.1745 7.435 25.8885 7.435H25.2615V10.284C25.2615 10.548 25.3129 10.7387 25.4155 10.856C25.5182 10.966 25.6979 11.021 25.9545 11.021C26.2112 11.021 26.4642 10.9513 26.7135 10.812C26.7795 10.8707 26.8272 10.944 26.8565 11.032C26.8932 11.12 26.9115 11.2117 26.9115 11.307C26.9115 11.5123 26.8052 11.6957 26.5925 11.857C26.3799 12.0183 26.0865 12.099 25.7125 12.099ZM29.9393 12.099C29.4699 12.099 29.0446 12.0147 28.6633 11.846C28.2893 11.67 27.9923 11.4317 27.7723 11.131C27.5596 10.8303 27.4533 10.4893 27.4533 10.108V8.48C27.4533 8.09133 27.5596 7.73933 27.7723 7.424C27.9849 7.10867 28.2783 6.85933 28.6523 6.676C29.0336 6.49267 29.4626 6.401 29.9393 6.401C30.4159 6.401 30.8413 6.49267 31.2153 6.676C31.5966 6.85933 31.8936 7.10867 32.1063 7.424C32.3189 7.73933 32.4253 8.09133 32.4253 8.48V10.108C32.4253 10.4893 32.3153 10.8303 32.0953 11.131C31.8826 11.4317 31.5856 11.67 31.2043 11.846C30.8303 12.0147 30.4086 12.099 29.9393 12.099ZM29.9393 11.032C30.3279 11.032 30.6359 10.944 30.8633 10.768C31.0906 10.5847 31.2043 10.339 31.2043 10.031V8.535C31.2043 8.21233 31.0906 7.952 30.8633 7.754C30.6359 7.556 30.3279 7.457 29.9393 7.457C29.5506 7.457 29.2426 7.556 29.0153 7.754C28.7879 7.952 28.6743 8.21233 28.6743 8.535V10.031C28.6743 10.339 28.7879 10.5847 29.0153 10.768C29.2426 10.944 29.5506 11.032 29.9393 11.032ZM36.2448 7.468C35.8194 7.468 35.4711 7.589 35.1998 7.831C34.9284 8.06567 34.7928 8.35533 34.7928 8.7V11.307C34.7928 11.5857 34.6901 11.7873 34.4848 11.912C34.2868 12.0367 33.9788 12.099 33.5608 12.099V7.38C33.5608 6.72733 33.9531 6.401 34.7378 6.401V7.061C34.6351 7.17833 34.5508 7.29567 34.4848 7.413L34.5398 7.457C35.0164 6.753 35.5994 6.401 36.2888 6.401C36.5821 6.401 36.8058 6.478 36.9598 6.632C37.1138 6.77867 37.1908 6.96567 37.1908 7.193C37.1908 7.36167 37.1468 7.512 37.0588 7.644C36.8461 7.52667 36.5748 7.468 36.2448 7.468ZM38.477 14.299C38.213 14.299 38.0077 14.211 37.861 14.035C37.7143 13.859 37.6373 13.6023 37.63 13.265C37.8353 13.3017 38.0113 13.32 38.158 13.32C38.4513 13.32 38.6823 13.2357 38.851 13.067C39.027 12.9057 39.214 12.6013 39.412 12.154L39.61 11.714L37.465 6.5C37.5163 6.47067 37.597 6.44867 37.707 6.434C37.8243 6.412 37.9233 6.401 38.004 6.401C38.1947 6.401 38.367 6.445 38.521 6.533C38.6823 6.61367 38.7923 6.731 38.851 6.885L40.127 10.207L39.962 10.691L40.039 10.724L41.546 6.885C41.612 6.731 41.722 6.61367 41.876 6.533C42.03 6.445 42.2023 6.401 42.393 6.401C42.4737 6.401 42.569 6.412 42.679 6.434C42.7963 6.44867 42.8807 6.47067 42.932 6.5L40.468 12.517C40.2187 13.1183 39.94 13.5657 39.632 13.859C39.324 14.1523 38.939 14.299 38.477 14.299ZM47.19 12.1044C46.5095 12.1044 45.9179 12.0155 45.4152 11.8376C44.9126 11.6597 44.5259 11.4161 44.2552 11.1068C43.9923 10.7975 43.8608 10.4417 43.8608 10.0396C43.8608 9.4132 44.2552 9.1 45.044 9.1C45.0595 9.71093 45.2528 10.1749 45.624 10.492C46.003 10.8091 46.5327 10.9676 47.2132 10.9676C47.8087 10.9676 48.2688 10.8671 48.5936 10.666C48.9184 10.4649 49.0808 10.1749 49.0808 9.796C49.0808 9.55627 49.019 9.36293 48.8952 9.216C48.7715 9.06133 48.5627 8.926 48.2688 8.81C47.975 8.68627 47.5496 8.56253 46.9928 8.4388C46.2504 8.2764 45.6627 8.08693 45.2296 7.8704C44.8043 7.65387 44.495 7.3948 44.3016 7.0932C44.1083 6.7916 44.0116 6.41653 44.0116 5.968C44.0116 5.53493 44.1392 5.15213 44.3944 4.8196C44.6496 4.48707 45.0092 4.23187 45.4732 4.054C45.9372 3.8684 46.4747 3.7756 47.0856 3.7756C47.6656 3.7756 48.1876 3.8568 48.6516 4.0192C49.1156 4.17387 49.4791 4.39427 49.742 4.6804C50.005 4.96653 50.1364 5.2952 50.1364 5.6664C50.1364 6.2 49.7614 6.4784 49.0112 6.5016C48.9494 5.9448 48.7638 5.5388 48.4544 5.2836C48.1528 5.0284 47.6966 4.9008 47.0856 4.9008C46.5443 4.9008 46.1267 4.9936 45.8328 5.1792C45.539 5.3648 45.392 5.62773 45.392 5.968C45.392 6.2 45.4462 6.39333 45.5544 6.548C45.6704 6.69493 45.8599 6.8264 46.1228 6.9424C46.3858 7.05067 46.7647 7.15893 47.2596 7.2672C48.0484 7.44507 48.6748 7.64613 49.1388 7.8704C49.6028 8.08693 49.9354 8.34987 50.1364 8.6592C50.3452 8.9608 50.4496 9.33973 50.4496 9.796C50.4496 10.2677 50.3143 10.6776 50.0436 11.0256C49.7807 11.3736 49.4018 11.6404 48.9068 11.826C48.4196 12.0116 47.8474 12.1044 47.19 12.1044ZM51.6112 7.292C51.6112 7.03533 51.7065 6.82267 51.8972 6.654C52.0878 6.48533 52.3738 6.401 52.7552 6.401V7.006C52.6598 7.12333 52.5902 7.21867 52.5462 7.292L52.5902 7.336C52.8175 7.03533 53.0742 6.80433 53.3602 6.643C53.6462 6.48167 53.9982 6.401 54.4162 6.401C55.0322 6.401 55.5308 6.58067 55.9122 6.94C56.3008 7.29933 56.4952 7.77233 56.4952 8.359V10.141C56.4952 10.5297 56.3998 10.8743 56.2092 11.175C56.0185 11.4683 55.7545 11.6957 55.4172 11.857C55.0872 12.0183 54.7095 12.099 54.2842 12.099C53.9908 12.099 53.6975 12.0367 53.4042 11.912C53.1108 11.7873 52.8615 11.6223 52.6562 11.417L52.6232 11.472C52.6672 11.5307 52.7442 11.6077 52.8542 11.703V13.43C52.8542 14.0093 52.4398 14.299 51.6112 14.299V7.292ZM54.0532 11.021C54.4418 11.021 54.7388 10.9403 54.9442 10.779C55.1568 10.6103 55.2632 10.3757 55.2632 10.075V8.436C55.2632 8.12067 55.1568 7.88233 54.9442 7.721C54.7388 7.55233 54.4418 7.468 54.0532 7.468C53.7012 7.468 53.4115 7.556 53.1842 7.732C52.9568 7.908 52.8432 8.12433 52.8432 8.381V10.119C52.8432 10.3757 52.9532 10.592 53.1732 10.768C53.3932 10.9367 53.6865 11.021 54.0532 11.021ZM60.386 7.468C59.9607 7.468 59.6123 7.589 59.341 7.831C59.0697 8.06567 58.934 8.35533 58.934 8.7V11.307C58.934 11.5857 58.8313 11.7873 58.626 11.912C58.428 12.0367 58.12 12.099 57.702 12.099V7.38C57.702 6.72733 58.0943 6.401 58.879 6.401V7.061C58.7763 7.17833 58.692 7.29567 58.626 7.413L58.681 7.457C59.1577 6.753 59.7407 6.401 60.43 6.401C60.7233 6.401 60.947 6.478 61.101 6.632C61.255 6.77867 61.332 6.96567 61.332 7.193C61.332 7.36167 61.288 7.512 61.2 7.644C60.9873 7.52667 60.716 7.468 60.386 7.468ZM63.8666 12.099C63.3973 12.099 62.972 12.0147 62.5906 11.846C62.2166 11.67 61.9196 11.4317 61.6996 11.131C61.487 10.8303 61.3806 10.4893 61.3806 10.108V8.48C61.3806 8.09133 61.487 7.73933 61.6996 7.424C61.9123 7.10867 62.2056 6.85933 62.5796 6.676C62.961 6.49267 63.39 6.401 63.8666 6.401C64.3433 6.401 64.7686 6.49267 65.1426 6.676C65.524 6.85933 65.821 7.10867 66.0336 7.424C66.2463 7.73933 66.3526 8.09133 66.3526 8.48V10.108C66.3526 10.4893 66.2426 10.8303 66.0226 11.131C65.81 11.4317 65.513 11.67 65.1316 11.846C64.7576 12.0147 64.336 12.099 63.8666 12.099ZM63.8666 11.032C64.2553 11.032 64.5633 10.944 64.7906 10.768C65.018 10.5847 65.1316 10.339 65.1316 10.031V8.535C65.1316 8.21233 65.018 7.952 64.7906 7.754C64.5633 7.556 64.2553 7.457 63.8666 7.457C63.478 7.457 63.17 7.556 62.9426 7.754C62.7153 7.952 62.6016 8.21233 62.6016 8.535V10.031C62.6016 10.339 62.7153 10.5847 62.9426 10.768C63.17 10.944 63.478 11.032 63.8666 11.032ZM72.0363 11.12C72.0363 11.4353 71.9373 11.6773 71.7393 11.846C71.5486 12.0147 71.2553 12.099 70.8593 12.099V11.417C70.9253 11.3363 71.0096 11.2263 71.1123 11.087L71.0463 11.043C70.8263 11.373 70.5549 11.6333 70.2323 11.824C69.9169 12.0073 69.5576 12.099 69.1543 12.099C68.7729 12.099 68.4283 12.0147 68.1203 11.846C67.8196 11.67 67.5849 11.4317 67.4163 11.131C67.2476 10.823 67.1633 10.4747 67.1633 10.086V7.193C67.1633 6.91433 67.2623 6.71267 67.4603 6.588C67.6656 6.46333 67.9809 6.401 68.4063 6.401V10.009C68.4063 10.3243 68.4979 10.5737 68.6813 10.757C68.8646 10.933 69.1359 11.021 69.4953 11.021C69.8839 11.021 70.1993 10.9037 70.4413 10.669C70.6833 10.4343 70.8043 10.141 70.8043 9.789V7.193C70.8043 6.91433 70.9033 6.71267 71.1013 6.588C71.3066 6.46333 71.6183 6.401 72.0363 6.401V11.12ZM75.7532 12.099C75.1812 12.099 74.7558 11.934 74.4772 11.604C74.2058 11.274 74.0702 10.8487 74.0702 10.328V7.435H72.9702C72.9702 7.11967 73.0325 6.885 73.1572 6.731C73.2818 6.577 73.4505 6.5 73.6632 6.5H74.0812V5.543C74.0812 5.26433 74.1802 5.06267 74.3782 4.938C74.5835 4.81333 74.8878 4.751 75.2912 4.751V6.5H76.7542C76.7542 6.83 76.6882 7.06833 76.5562 7.215C76.4242 7.36167 76.2152 7.435 75.9292 7.435H75.3022V10.284C75.3022 10.548 75.3535 10.7387 75.4562 10.856C75.5588 10.966 75.7385 11.021 75.9952 11.021C76.2518 11.021 76.5048 10.9513 76.7542 10.812C76.8202 10.8707 76.8678 10.944 76.8972 11.032C76.9338 11.12 76.9522 11.2117 76.9522 11.307C76.9522 11.5123 76.8458 11.6957 76.6332 11.857C76.4205 12.0183 76.1272 12.099 75.7532 12.099Z" fill="white"/>
<path fill-rule="evenodd" clip-rule="evenodd" d="M9.64759 2.14562C9.54589 2.038 9.42809 1.94404 9.29177 1.87256C9.11185 1.78405 8.89381 1.73169 8.6425 1.7285V5.72613H8.60169C8.60851 5.78354 8.61449 5.84191 8.61964 5.90126C9.72085 4.58418 10.0312 3.50854 9.93191 2.80793C9.89301 2.53352 9.79216 2.31336 9.64759 2.14562ZM8.66424 6.93386L8.67138 6.94984V13.4274C8.75921 13.323 8.85157 13.21 8.94552 13.0904C9.43902 12.4623 9.93783 11.7009 10.0985 11.0581C10.1783 10.7391 10.2293 10.1387 10.2553 9.37292C10.2809 8.61867 10.2816 7.73731 10.2708 6.87691C10.2614 6.12682 10.2434 5.3952 10.226 4.78125C9.89904 5.45302 9.38576 6.1782 8.66424 6.93386ZM8.41324 14.5296L7.96806 14.5823C7.79454 14.218 6.87757 13.2971 4.62014 13.0865C3.54775 12.9865 2.67838 13.2547 2.01385 13.6424C1.34242 14.034 0.895002 14.5403 0.693739 14.8783L0 14.7771V6.93738L0.0288757 6.88889C0.249759 6.51793 0.818671 5.92782 1.77766 5.46096V2.61105L1.97739 2.51119C2.21205 2.39386 2.52136 2.32427 2.83998 2.28297C3.16573 2.24075 3.53112 2.22452 3.89594 2.2292C4.6166 2.23844 5.38171 2.33007 5.8663 2.4916C6.4271 2.67853 7.13002 2.97355 7.68943 3.58381C7.77013 3.67185 7.84714 3.76566 7.91989 3.86566V1.08094L8.22573 1.03342C8.77698 0.94778 9.23726 1.03208 9.61276 1.22501L9.61405 1.22567C9.68998 1.26324 9.76316 1.30564 9.83326 1.35288C9.96513 1.44176 10.0832 1.54591 10.1862 1.66369C10.2818 1.76661 10.3644 1.87443 10.4356 1.98175C10.6217 2.26245 10.7362 2.54948 10.8042 2.76299C10.8384 2.87062 10.8616 2.96185 10.8764 3.02744C10.8838 3.0603 10.8892 3.08688 10.8928 3.10607L10.8971 3.12921L10.8983 3.13638L10.8987 3.13883L10.8988 3.13976L10.8989 3.1405L10.7798 3.15935C10.833 3.15095 10.8624 3.14631 10.8787 3.14375C10.899 3.14056 10.899 3.14056 10.8989 3.1405L10.9033 3.16779L10.9034 3.19542C10.9038 3.30126 10.9117 3.55537 10.9229 3.91711L10.923 3.9182C10.9283 4.08906 10.9343 4.28388 10.9407 4.4984C10.9603 5.16188 10.9826 6.00209 10.9934 6.86788C11.0042 7.73302 11.0036 8.62703 10.9775 9.39743C10.9517 10.1563 10.9005 10.8298 10.7996 11.2334C10.5989 12.0359 10.0138 12.9003 9.51373 13.5368C9.25857 13.8616 9.01544 14.1394 8.8361 14.3361C8.74632 14.4346 8.67222 14.513 8.62024 14.5672C8.59424 14.5943 8.57374 14.6154 8.55955 14.6298L8.54309 14.6465L8.53859 14.6511L8.53677 14.6529C8.53673 14.653 8.5367 14.653 8.41324 14.5296ZM2.50027 3.08365C2.61634 3.05071 2.76132 3.02183 2.93287 2.99959C3.21682 2.96278 3.54694 2.9474 3.88667 2.95175C4.57511 2.96058 5.25523 3.04961 5.63779 3.17713C6.16091 3.35151 6.72256 3.59845 7.15675 4.0721C7.51237 4.46005 7.80632 5.02681 7.89353 5.89649C7.7315 5.74623 7.54559 5.59919 7.33489 5.46332C6.61577 4.99961 5.60275 4.66459 4.28894 4.78717C3.609 4.8506 3.01406 4.98635 2.50027 5.16307V3.08365ZM7.91989 13.6249V6.97622C7.74917 6.67492 7.39169 6.44444 6.86033 6.10185L6.83596 6.08613C6.24685 5.70625 5.44929 5.36342 4.37847 5.46332C2.21228 5.66543 1.05649 6.70067 0.722615 7.20925V13.8538C0.795346 13.7874 0.87325 13.7058 0.955939 13.6192L0.955944 13.6192C1.13675 13.4297 1.34044 13.2163 1.56294 13.0865C2.34466 12.6305 3.35588 12.1059 4.66812 12.2284C6.21276 12.3725 7.28979 13.1583 7.91989 13.6249Z" fill="white"/>
</svg>
